<svg width="184" height="24" viewBox="0 0 184 24" fill="none" xmlns="http://www.w3.org/2000/svg">
<path d="M5.60132 19.3328C4.50106 19.3328 3.68009 19.0662 3.13843 18.533C2.59676 17.9913 2.32593 17.1407 2.32593 15.9812V7.25952H0.358154V5.86304H2.32593V2.29565H4.05249V5.86304H6.70581V7.25952H4.05249V15.9177C4.05249 16.6625 4.20483 17.183 4.50952 17.4792C4.82267 17.767 5.29663 17.9109 5.9314 17.9109C6.08374 17.9109 6.22339 17.9067 6.35034 17.8982C6.48576 17.8897 6.60425 17.877 6.70581 17.8601V19.2312C6.57039 19.2566 6.40112 19.2778 6.198 19.2947C6.00334 19.3201 5.80444 19.3328 5.60132 19.3328ZM8.23026 19.1042V0.70874H9.90604V8.27515H9.95683C10.2954 7.46265 10.837 6.81942 11.5818 6.34546C12.3266 5.86304 13.2238 5.62183 14.2732 5.62183C15.2381 5.62183 16.076 5.84188 16.7869 6.28198C17.4978 6.71362 18.0522 7.323 18.45 8.11011C18.8478 8.89722 19.0467 9.83244 19.0467 10.9158V19.1042H17.3709V11.1951C17.3709 9.88322 17.0493 8.87606 16.406 8.17358C15.7713 7.47111 14.8826 7.11987 13.74 7.11987C12.9783 7.11987 12.3097 7.29761 11.7342 7.65308C11.1586 8.00008 10.7101 8.48674 10.3885 9.11304C10.0669 9.73934 9.90604 10.4672 9.90604 11.2966V19.1042H8.23026ZM26.3221 19.3455C25.0864 19.3455 24.0158 19.0662 23.1102 18.5076C22.2131 17.949 21.519 17.1619 21.0282 16.1462C20.5457 15.1222 20.3045 13.9119 20.3045 12.5154V12.5027C20.3045 11.1147 20.5457 9.90861 21.0282 8.88452C21.519 7.85197 22.2046 7.05216 23.0848 6.48511C23.9735 5.90959 25.006 5.62183 26.1825 5.62183C27.3589 5.62183 28.3787 5.89689 29.242 6.44702C30.1138 6.99715 30.7824 7.76733 31.2479 8.75757C31.7218 9.7478 31.9588 10.9031 31.9588 12.2234V12.8962H21.1424V11.5505H31.1336L30.283 12.7566V12.1345C30.283 11.0427 30.1053 10.1244 29.7498 9.37964C29.4028 8.63485 28.9204 8.07202 28.3026 7.69116C27.6847 7.30184 26.9738 7.10718 26.1698 7.10718C25.3657 7.10718 24.6463 7.30607 24.0116 7.70386C23.3853 8.09318 22.8901 8.66447 22.5262 9.41772C22.1707 10.171 21.993 11.0766 21.993 12.1345V12.7566C21.993 13.8315 22.1707 14.7498 22.5262 15.5115C22.8901 16.2732 23.3979 16.8529 24.0496 17.2507C24.7098 17.6485 25.48 17.8474 26.3602 17.8474C27.0119 17.8474 27.5916 17.7501 28.0994 17.5554C28.6073 17.3523 29.0304 17.073 29.369 16.7175C29.7075 16.3536 29.9487 15.9389 30.0926 15.4734L30.1307 15.3591H31.7811L31.7557 15.4734C31.6372 16.032 31.4214 16.5483 31.1082 17.0222C30.8035 17.4877 30.4142 17.8982 29.9403 18.2537C29.4663 18.6007 28.9246 18.8715 28.3153 19.0662C27.7059 19.2524 27.0415 19.3455 26.3221 19.3455ZM43.2089 23.7888C42.1679 23.7888 41.2623 23.6407 40.4921 23.3445C39.7219 23.0483 39.0956 22.642 38.6132 22.1257C38.1392 21.6179 37.8261 21.0509 37.6737 20.4246L37.6483 20.3357H39.3495L39.3876 20.4373C39.6077 20.9705 40.0435 21.4148 40.6952 21.7703C41.3554 22.1257 42.1933 22.3035 43.2089 22.3035C44.47 22.3035 45.456 21.9734 46.1669 21.3132C46.8778 20.6615 47.2333 19.7686 47.2333 18.6345V16.2478H47.1825C46.9456 16.8233 46.607 17.3354 46.1669 17.7839C45.7353 18.224 45.2232 18.571 44.6308 18.825C44.0383 19.0704 43.3866 19.1931 42.6757 19.1931C41.5585 19.1931 40.5767 18.9138 39.7304 18.3552C38.8925 17.7882 38.2366 16.9968 37.7626 15.9812C37.2971 14.9571 37.0644 13.7638 37.0644 12.4011V12.3884C37.0644 11.0343 37.3013 9.84937 37.7753 8.83374C38.2577 7.81812 38.9221 7.03101 39.7685 6.47241C40.6148 5.90535 41.5924 5.62183 42.7011 5.62183C43.412 5.62183 44.0595 5.75301 44.6435 6.01538C45.2275 6.27775 45.7353 6.63745 46.1669 7.09448C46.5985 7.55151 46.9371 8.07202 47.1825 8.65601H47.2333V5.86304H48.9091V18.7869C48.9091 19.8025 48.6763 20.6827 48.2108 21.4275C47.7538 22.1807 47.0979 22.7605 46.2431 23.1667C45.3883 23.5815 44.3769 23.7888 43.2089 23.7888ZM43.0058 17.7078C43.8437 17.7078 44.58 17.4877 45.2148 17.0476C45.8495 16.599 46.3446 15.977 46.7001 15.1814C47.0556 14.3858 47.2333 13.4591 47.2333 12.4011V12.3884C47.2333 11.3389 47.0556 10.4207 46.7001 9.63354C46.3446 8.83797 45.8495 8.22013 45.2148 7.78003C44.58 7.33146 43.8437 7.10718 43.0058 7.10718C42.151 7.10718 41.4062 7.32723 40.7714 7.76733C40.1366 8.20744 39.6457 8.82528 39.2987 9.62085C38.9517 10.408 38.7782 11.3305 38.7782 12.3884V12.4011C38.7782 13.476 38.9517 14.4112 39.2987 15.2068C39.6457 15.9939 40.1366 16.6075 40.7714 17.0476C41.4062 17.4877 42.151 17.7078 43.0058 17.7078ZM56.248 19.3455C55.0462 19.337 53.9925 19.0577 53.0869 18.5076C52.1813 17.949 51.4746 17.1576 50.9667 16.1335C50.4674 15.101 50.2177 13.8822 50.2177 12.4773V12.4519C50.2177 11.047 50.4674 9.83667 50.9667 8.82104C51.4746 7.79696 52.1813 7.00985 53.0869 6.45972C53.9925 5.90112 55.0462 5.62183 56.248 5.62183C57.4498 5.62183 58.5035 5.90112 59.4091 6.45972C60.3147 7.00985 61.0172 7.79696 61.5166 8.82104C62.0244 9.83667 62.2783 11.047 62.2783 12.4519V12.4773C62.2783 13.8907 62.0244 15.1095 61.5166 16.1335C61.0172 17.1576 60.3147 17.949 59.4091 18.5076C58.512 19.0662 57.4583 19.3455 56.248 19.3455ZM56.2607 17.8474C57.1324 17.8474 57.8899 17.6358 58.5332 17.2126C59.1764 16.781 59.6757 16.1632 60.0312 15.3591C60.3951 14.5551 60.5771 13.5945 60.5771 12.4773V12.4519C60.5771 11.3347 60.3951 10.3783 60.0312 9.58276C59.6757 8.78719 59.1722 8.17782 58.5205 7.75464C57.8772 7.323 57.1197 7.10718 56.248 7.10718C55.3847 7.10718 54.6272 7.323 53.9755 7.75464C53.3238 8.17782 52.8203 8.78719 52.4648 9.58276C52.1093 10.3783 51.9316 11.3347 51.9316 12.4519V12.4773C51.9316 13.5945 52.1093 14.5551 52.4648 15.3591C52.8203 16.1632 53.3238 16.781 53.9755 17.2126C54.6272 17.6358 55.3889 17.8474 56.2607 17.8474ZM68.9951 19.3455C67.7933 19.337 66.7396 19.0577 65.834 18.5076C64.9284 17.949 64.2217 17.1576 63.7139 16.1335C63.2145 15.101 62.9648 13.8822 62.9648 12.4773V12.4519C62.9648 11.047 63.2145 9.83667 63.7139 8.82104C64.2217 7.79696 64.9284 7.00985 65.834 6.45972C66.7396 5.90112 67.7933 5.62183 68.9951 5.62183C70.1969 5.62183 71.2506 5.90112 72.1562 6.45972C73.0618 7.00985 73.7643 7.79696 74.2637 8.82104C74.7715 9.83667 75.0254 11.047 75.0254 12.4519V12.4773C75.0254 13.8907 74.7715 15.1095 74.2637 16.1335C73.7643 17.1576 73.0618 17.949 72.1562 18.5076C71.2591 19.0662 70.2054 19.3455 68.9951 19.3455ZM69.0078 17.8474C69.8795 17.8474 70.637 17.6358 71.2803 17.2126C71.9235 16.781 72.4228 16.1632 72.7783 15.3591C73.1422 14.5551 73.3242 13.5945 73.3242 12.4773V12.4519C73.3242 11.3347 73.1422 10.3783 72.7783 9.58276C72.4228 8.78719 71.9193 8.17782 71.2676 7.75464C70.6243 7.323 69.8669 7.10718 68.9951 7.10718C68.1318 7.10718 67.3743 7.323 66.7226 7.75464C66.071 8.17782 65.5674 8.78719 65.2119 9.58276C64.8564 10.3783 64.6787 11.3347 64.6787 12.4519V12.4773C64.6787 13.5945 64.8564 14.5551 65.2119 15.3591C65.5674 16.1632 66.071 16.781 66.7226 17.2126C67.3743 17.6358 68.1361 17.8474 69.0078 17.8474ZM81.3233 19.3455C80.2061 19.3455 79.2243 19.0619 78.378 18.4949C77.5401 17.9194 76.8841 17.1195 76.4102 16.0955C75.9447 15.0629 75.7119 13.8569 75.7119 12.4773V12.4646C75.7119 11.085 75.9489 9.88322 76.4229 8.85913C76.8968 7.83504 77.5528 7.03947 78.3907 6.47241C79.2285 5.90535 80.1976 5.62183 81.2979 5.62183C81.9919 5.62183 82.6351 5.74455 83.2276 5.98999C83.8285 6.23543 84.349 6.58244 84.7891 7.03101C85.2377 7.47957 85.5847 8.00854 85.8301 8.61792H85.8809V0.70874H87.5567V19.1042H85.8809V16.3494H85.8174C85.5635 16.9587 85.2165 17.4877 84.7764 17.9363C84.3363 18.3764 83.8242 18.7234 83.2403 18.9773C82.6563 19.2227 82.0173 19.3455 81.3233 19.3455ZM81.6407 17.8474C82.4701 17.8474 83.2064 17.6231 83.8496 17.1746C84.4929 16.726 84.9922 16.0997 85.3477 15.2957C85.7116 14.4832 85.8936 13.5479 85.8936 12.49V12.4773C85.8936 11.4024 85.7116 10.463 85.3477 9.65894C84.9838 8.8549 84.4802 8.2286 83.8369 7.78003C83.2022 7.33146 82.4659 7.10718 81.628 7.10718C80.7816 7.10718 80.041 7.33146 79.4063 7.78003C78.7715 8.22013 78.2806 8.83797 77.9336 9.63354C77.5951 10.4291 77.4258 11.3728 77.4258 12.4646V12.4773C77.4258 13.5691 77.5951 14.517 77.9336 15.321C78.2806 16.1251 78.7715 16.7472 79.4063 17.1873C80.041 17.6274 80.7858 17.8474 81.6407 17.8474ZM94.795 19.1042V7.25952H92.9161V5.86304H94.795V3.99683C94.795 3.19279 94.922 2.53263 95.1759 2.01636C95.4383 1.50008 95.8191 1.11499 96.3185 0.861084C96.8263 0.607178 97.4526 0.480225 98.1974 0.480225C98.4259 0.480225 98.6502 0.49292 98.8702 0.518311C99.0903 0.535238 99.2765 0.556396 99.4288 0.581787V1.95288C99.2934 1.93595 99.1411 1.92326 98.9718 1.91479C98.811 1.89787 98.6417 1.8894 98.464 1.8894C97.8123 1.8894 97.3129 2.06291 96.9659 2.40991C96.6274 2.74845 96.4581 3.29012 96.4581 4.03491V5.86304H99.34V7.25952H96.4708V19.1042H94.795ZM104.825 19.3455C103.624 19.337 102.57 19.0577 101.664 18.5076C100.759 17.949 100.052 17.1576 99.5441 16.1335C99.0447 15.101 98.7951 13.8822 98.7951 12.4773V12.4519C98.7951 11.047 99.0447 9.83667 99.5441 8.82104C100.052 7.79696 100.759 7.00985 101.664 6.45972C102.57 5.90112 103.624 5.62183 104.825 5.62183C106.027 5.62183 107.081 5.90112 107.986 6.45972C108.892 7.00985 109.595 7.79696 110.094 8.82104C110.602 9.83667 110.856 11.047 110.856 12.4519V12.4773C110.856 13.8907 110.602 15.1095 110.094 16.1335C109.595 17.1576 108.892 17.949 107.986 18.5076C107.089 19.0662 106.036 19.3455 104.825 19.3455ZM104.838 17.8474C105.71 17.8474 106.467 17.6358 107.11 17.2126C107.754 16.781 108.253 16.1632 108.609 15.3591C108.972 14.5551 109.154 13.5945 109.154 12.4773V12.4519C109.154 11.3347 108.972 10.3783 108.609 9.58276C108.253 8.78719 107.749 8.17782 107.098 7.75464C106.455 7.323 105.697 7.10718 104.825 7.10718C103.962 7.10718 103.205 7.323 102.553 7.75464C101.901 8.17782 101.398 8.78719 101.042 9.58276C100.687 10.3783 100.509 11.3347 100.509 12.4519V12.4773C100.509 13.5945 100.687 14.5551 101.042 15.3591C101.398 16.1632 101.901 16.781 102.553 17.2126C103.205 17.6358 103.966 17.8474 104.838 17.8474ZM117.572 19.3455C116.371 19.337 115.317 19.0577 114.411 18.5076C113.506 17.949 112.799 17.1576 112.291 16.1335C111.792 15.101 111.542 13.8822 111.542 12.4773V12.4519C111.542 11.047 111.792 9.83667 112.291 8.82104C112.799 7.79696 113.506 7.00985 114.411 6.45972C115.317 5.90112 116.371 5.62183 117.572 5.62183C118.774 5.62183 119.828 5.90112 120.734 6.45972C121.639 7.00985 122.342 7.79696 122.841 8.82104C123.349 9.83667 123.603 11.047 123.603 12.4519V12.4773C123.603 13.8907 123.349 15.1095 122.841 16.1335C122.342 17.1576 121.639 17.949 120.734 18.5076C119.836 19.0662 118.783 19.3455 117.572 19.3455ZM117.585 17.8474C118.457 17.8474 119.214 17.6358 119.858 17.2126C120.501 16.781 121 16.1632 121.356 15.3591C121.72 14.5551 121.902 13.5945 121.902 12.4773V12.4519C121.902 11.3347 121.72 10.3783 121.356 9.58276C121 8.78719 120.497 8.17782 119.845 7.75464C119.202 7.323 118.444 7.10718 117.572 7.10718C116.709 7.10718 115.952 7.323 115.3 7.75464C114.648 8.17782 114.145 8.78719 113.789 9.58276C113.434 10.3783 113.256 11.3347 113.256 12.4519V12.4773C113.256 13.5945 113.434 14.5551 113.789 15.3591C114.145 16.1632 114.648 16.781 115.3 17.2126C115.952 17.6358 116.713 17.8474 117.585 17.8474ZM129.901 19.3455C128.783 19.3455 127.802 19.0619 126.955 18.4949C126.117 17.9194 125.461 17.1195 124.988 16.0955C124.522 15.0629 124.289 13.8569 124.289 12.4773V12.4646C124.289 11.085 124.526 9.88322 125 8.85913C125.474 7.83504 126.13 7.03947 126.968 6.47241C127.806 5.90535 128.775 5.62183 129.875 5.62183C130.569 5.62183 131.212 5.74455 131.805 5.98999C132.406 6.23543 132.926 6.58244 133.366 7.03101C133.815 7.47957 134.162 8.00854 134.407 8.61792H134.458V0.70874H136.134V19.1042H134.458V16.3494H134.395C134.141 16.9587 133.794 17.4877 133.354 17.9363C132.914 18.3764 132.402 18.7234 131.818 18.9773C131.234 19.2227 130.595 19.3455 129.901 19.3455ZM130.218 17.8474C131.047 17.8474 131.784 17.6231 132.427 17.1746C133.07 16.726 133.57 16.0997 133.925 15.2957C134.289 14.4832 134.471 13.5479 134.471 12.49V12.4773C134.471 11.4024 134.289 10.463 133.925 9.65894C133.561 8.8549 133.058 8.2286 132.414 7.78003C131.78 7.33146 131.043 7.10718 130.205 7.10718C129.359 7.10718 128.618 7.33146 127.984 7.78003C127.349 8.22013 126.858 8.83797 126.511 9.63354C126.172 10.4291 126.003 11.3728 126.003 12.4646V12.4773C126.003 13.5691 126.172 14.517 126.511 15.321C126.858 16.1251 127.349 16.7472 127.984 17.1873C128.618 17.6274 129.363 17.8474 130.218 17.8474ZM149.034 19.3455C148.34 19.3455 147.697 19.2227 147.105 18.9773C146.521 18.7234 146.009 18.3722 145.569 17.9236C145.129 17.475 144.777 16.9376 144.515 16.3113H144.464V19.1042H142.788V0.70874H144.464V8.61792H144.515C144.769 8.00854 145.116 7.47957 145.556 7.03101C146.005 6.58244 146.525 6.23543 147.117 5.98999C147.718 5.74455 148.362 5.62183 149.047 5.62183C150.156 5.62183 151.129 5.90535 151.967 6.47241C152.805 7.03947 153.457 7.83504 153.922 8.85913C154.396 9.88322 154.633 11.085 154.633 12.4646V12.4773C154.633 13.8569 154.4 15.0629 153.935 16.0955C153.469 17.1195 152.813 17.9194 151.967 18.4949C151.129 19.0619 150.152 19.3455 149.034 19.3455ZM148.717 17.8474C149.572 17.8474 150.312 17.6274 150.939 17.1873C151.574 16.7472 152.064 16.1251 152.411 15.321C152.758 14.517 152.932 13.5691 152.932 12.4773V12.4646C152.932 11.3728 152.758 10.4291 152.411 9.63354C152.064 8.82951 151.574 8.20744 150.939 7.76733C150.312 7.32723 149.572 7.10718 148.717 7.10718C147.888 7.10718 147.151 7.33146 146.508 7.78003C145.873 8.2286 145.37 8.8549 144.997 9.65894C144.633 10.463 144.451 11.4024 144.451 12.4773V12.49C144.451 13.5479 144.633 14.4832 144.997 15.2957C145.361 16.0997 145.861 16.726 146.495 17.1746C147.139 17.6231 147.879 17.8474 148.717 17.8474ZM156.069 19.1042V0.70874H157.744V19.1042H156.069ZM165.21 19.3455C164.009 19.337 162.955 19.0577 162.049 18.5076C161.144 17.949 160.437 17.1576 159.929 16.1335C159.43 15.101 159.18 13.8822 159.18 12.4773V12.4519C159.18 11.047 159.43 9.83667 159.929 8.82104C160.437 7.79696 161.144 7.00985 162.049 6.45972C162.955 5.90112 164.009 5.62183 165.21 5.62183C166.412 5.62183 167.466 5.90112 168.371 6.45972C169.277 7.00985 169.98 7.79696 170.479 8.82104C170.987 9.83667 171.241 11.047 171.241 12.4519V12.4773C171.241 13.8907 170.987 15.1095 170.479 16.1335C169.98 17.1576 169.277 17.949 168.371 18.5076C167.474 19.0662 166.421 19.3455 165.21 19.3455ZM165.223 17.8474C166.095 17.8474 166.852 17.6358 167.495 17.2126C168.139 16.781 168.638 16.1632 168.994 15.3591C169.357 14.5551 169.539 13.5945 169.539 12.4773V12.4519C169.539 11.3347 169.357 10.3783 168.994 9.58276C168.638 8.78719 168.134 8.17782 167.483 7.75464C166.84 7.323 166.082 7.10718 165.21 7.10718C164.347 7.10718 163.59 7.323 162.938 7.75464C162.286 8.17782 161.783 8.78719 161.427 9.58276C161.072 10.3783 160.894 11.3347 160.894 12.4519V12.4773C160.894 13.5945 161.072 14.5551 161.427 15.3591C161.783 16.1632 162.286 16.781 162.938 17.2126C163.59 17.6358 164.351 17.8474 165.223 17.8474ZM178.072 23.7888C177.031 23.7888 176.125 23.6407 175.355 23.3445C174.585 23.0483 173.958 22.642 173.476 22.1257C173.002 21.6179 172.689 21.0509 172.537 20.4246L172.511 20.3357H174.212L174.25 20.4373C174.47 20.9705 174.906 21.4148 175.558 21.7703C176.218 22.1257 177.056 22.3035 178.072 22.3035C179.333 22.3035 180.319 21.9734 181.03 21.3132C181.741 20.6615 182.096 19.7686 182.096 18.6345V16.2478H182.045C181.808 16.8233 181.47 17.3354 181.03 17.7839C180.598 18.224 180.086 18.571 179.494 18.825C178.901 19.0704 178.249 19.1931 177.539 19.1931C176.421 19.1931 175.44 18.9138 174.593 18.3552C173.755 17.7882 173.099 16.9968 172.625 15.9812C172.16 14.9571 171.927 13.7638 171.927 12.4011V12.3884C171.927 11.0343 172.164 9.84937 172.638 8.83374C173.121 7.81812 173.785 7.03101 174.631 6.47241C175.478 5.90535 176.455 5.62183 177.564 5.62183C178.275 5.62183 178.922 5.75301 179.506 6.01538C180.09 6.27775 180.598 6.63745 181.03 7.09448C181.461 7.55151 181.8 8.07202 182.045 8.65601H182.096V5.86304H183.772V18.7869C183.772 19.8025 183.539 20.6827 183.074 21.4275C182.617 22.1807 181.961 22.7605 181.106 23.1667C180.251 23.5815 179.24 23.7888 178.072 23.7888ZM177.869 17.7078C178.706 17.7078 179.443 17.4877 180.078 17.0476C180.712 16.599 181.207 15.977 181.563 15.1814C181.918 14.3858 182.096 13.4591 182.096 12.4011V12.3884C182.096 11.3389 181.918 10.4207 181.563 9.63354C181.207 8.83797 180.712 8.22013 180.078 7.78003C179.443 7.33146 178.706 7.10718 177.869 7.10718C177.014 7.10718 176.269 7.32723 175.634 7.76733C174.999 8.20744 174.509 8.82528 174.162 9.62085C173.815 10.408 173.641 11.3305 173.641 12.3884V12.4011C173.641 13.476 173.815 14.4112 174.162 15.2068C174.509 15.9939 174.999 16.6075 175.634 17.0476C176.269 17.4877 177.014 17.7078 177.869 17.7078Z" fill="black" fill-opacity="0.25"/>
</svg>
