<svg width="639" height="87" viewBox="0 0 639 87" fill="none" xmlns="http://www.w3.org/2000/svg">
<path d="M17.3906 69.75C14.2969 69.75 11.9844 68.9062 10.4531 67.2188C8.92188 65.5312 8.15625 62.9531 8.15625 59.4844V22.4062H0.9375V20.25H8.15625V7.07812H10.5469V20.25H20.8125V22.4062H10.5469V59.25C10.5469 62.1562 11.125 64.2812 12.2812 65.625C13.4688 66.9375 15.2969 67.5938 17.7656 67.5938C18.3906 67.5938 18.9688 67.5781 19.5 67.5469C20.0625 67.4844 20.5 67.4219 20.8125 67.3594V69.375C20.4062 69.5 19.9062 69.5938 19.3125 69.6562C18.7188 69.7188 18.0781 69.75 17.3906 69.75ZM26.0662 69V1.35938H28.41V31.3125H28.5037C29.5662 27.9375 31.6287 25.1406 34.6912 22.9219C37.7537 20.6719 41.4725 19.5469 45.8475 19.5469C49.535 19.5469 52.7069 20.2969 55.3631 21.7969C58.0194 23.2969 60.0662 25.4844 61.5037 28.3594C62.9725 31.2031 63.7069 34.6719 63.7069 38.7656V69H61.3631V38.9062C61.3631 33.2812 59.9256 29.0156 57.0506 26.1094C54.2069 23.1719 50.3319 21.7031 45.4256 21.7031C42.0506 21.7031 39.0819 22.4844 36.5194 24.0469C33.9569 25.5781 31.9569 27.6875 30.5194 30.375C29.1131 33.0625 28.41 36.1875 28.41 39.75V69H26.0662ZM89.4919 69.75C85.1794 69.75 81.3981 68.75 78.1481 66.75C74.9294 64.75 72.4137 61.875 70.6012 58.125C68.82 54.3438 67.9294 49.8438 67.9294 44.625V44.5781C67.9294 39.3594 68.8044 34.875 70.5544 31.125C72.3356 27.375 74.8044 24.5 77.9606 22.5C81.1481 20.5 84.8044 19.5 88.9294 19.5C93.0856 19.5 96.7419 20.4844 99.8981 22.4531C103.054 24.3906 105.507 27.1562 107.257 30.75C109.007 34.3438 109.882 38.5781 109.882 43.4531V44.8125H69.1012V42.6562H108.898L107.632 44.25V43.5C107.632 39.0938 106.836 35.25 105.242 31.9688C103.648 28.6875 101.445 26.1562 98.6325 24.375C95.8512 22.5625 92.6169 21.6562 88.9294 21.6562C85.2731 21.6562 82.0387 22.5625 79.2262 24.375C76.4137 26.1875 74.2106 28.7344 72.6169 32.0156C71.0544 35.2656 70.2731 39.0938 70.2731 43.5V44.25C70.2731 49.25 71.07 53.4844 72.6637 56.9531C74.2887 60.4219 76.5387 63.0625 79.4137 64.875C82.32 66.6875 85.695 67.5938 89.5387 67.5938C92.57 67.5938 95.2575 67.1094 97.6012 66.1406C99.945 65.1406 101.898 63.7344 103.461 61.9219C105.023 60.0781 106.132 57.9062 106.789 55.4062L106.882 55.0312H109.273L109.179 55.4531C108.711 57.6719 107.898 59.6719 106.742 61.4531C105.617 63.2031 104.195 64.7031 102.476 65.9531C100.757 67.2031 98.8044 68.1562 96.6169 68.8125C94.4606 69.4375 92.0856 69.75 89.4919 69.75ZM149.64 86.1562C146.109 86.1562 143.046 85.6406 140.452 84.6094C137.89 83.5781 135.796 82.1875 134.171 80.4375C132.546 78.7188 131.406 76.8281 130.749 74.7656L130.656 74.4844H133.093L133.234 74.8594C134.109 77.2656 135.937 79.3906 138.718 81.2344C141.531 83.0781 145.187 84 149.687 84C155.124 84 159.39 82.5469 162.484 79.6406C165.577 76.7656 167.124 72.8594 167.124 67.9219V54.75H166.984C166.39 57.5312 165.218 60.0625 163.468 62.3438C161.718 64.5938 159.546 66.3906 156.952 67.7344C154.359 69.0781 151.452 69.75 148.234 69.75C144.171 69.75 140.593 68.7031 137.499 66.6094C134.406 64.5156 131.984 61.5938 130.234 57.8438C128.515 54.0625 127.656 49.6562 127.656 44.625V44.5781C127.656 39.5781 128.531 35.2031 130.281 31.4531C132.031 27.6719 134.452 24.7344 137.546 22.6406C140.64 20.5469 144.202 19.5 148.234 19.5C151.421 19.5 154.296 20.1719 156.859 21.5156C159.452 22.8594 161.624 24.6875 163.374 27C165.124 29.2812 166.327 31.8281 166.984 34.6406H167.124V20.25H169.468V67.9688C169.468 71.6875 168.671 74.9062 167.077 77.625C165.484 80.3438 163.202 82.4375 160.234 83.9062C157.265 85.4062 153.734 86.1562 149.64 86.1562ZM148.374 67.5469C152.062 67.5469 155.312 66.5781 158.124 64.6406C160.937 62.6719 163.14 59.9688 164.734 56.5312C166.327 53.0938 167.124 49.125 167.124 44.625V44.5781C167.124 40.0469 166.327 36.0625 164.734 32.625C163.14 29.1875 160.937 26.5 158.124 24.5625C155.312 22.625 152.062 21.6562 148.374 21.6562C144.781 21.6562 141.593 22.625 138.812 24.5625C136.062 26.5 133.906 29.1875 132.343 32.625C130.781 36.0312 129.999 40.0156 129.999 44.5781V44.625C129.999 49.1562 130.765 53.1406 132.296 56.5781C133.859 60.0156 136.015 62.7031 138.765 64.6406C141.546 66.5781 144.749 67.5469 148.374 67.5469ZM195.441 69.75C191.159 69.7188 187.394 68.6875 184.144 66.6562C180.925 64.625 178.425 61.7344 176.644 57.9844C174.863 54.2031 173.972 49.75 173.972 44.625V44.5312C173.972 39.4062 174.863 34.9688 176.644 31.2188C178.456 27.4688 180.972 24.5781 184.191 22.5469C187.409 20.5156 191.159 19.5 195.441 19.5C199.691 19.5 203.425 20.5156 206.644 22.5469C209.894 24.5781 212.425 27.4688 214.238 31.2188C216.081 34.9375 217.003 39.375 217.003 44.5312V44.625C217.003 49.7812 216.081 54.25 214.238 58.0312C212.425 61.7812 209.894 64.6719 206.644 66.7031C203.425 68.7344 199.691 69.75 195.441 69.75ZM195.441 67.5938C199.253 67.5938 202.597 66.6562 205.472 64.7812C208.378 62.9062 210.628 60.25 212.222 56.8125C213.816 53.375 214.613 49.3125 214.613 44.625V44.5312C214.613 39.8125 213.8 35.75 212.175 32.3438C210.581 28.9375 208.331 26.3125 205.425 24.4688C202.55 22.5938 199.222 21.6562 195.441 21.6562C191.597 21.6562 188.238 22.5938 185.363 24.4688C182.519 26.3125 180.3 28.9531 178.706 32.3906C177.113 35.7969 176.316 39.8438 176.316 44.5312V44.625C176.316 49.3125 177.113 53.375 178.706 56.8125C180.3 60.25 182.519 62.9062 185.363 64.7812C188.238 66.625 191.597 67.5625 195.441 67.5938ZM240.538 69.75C236.257 69.7188 232.491 68.6875 229.241 66.6562C226.023 64.625 223.523 61.7344 221.741 57.9844C219.96 54.2031 219.069 49.75 219.069 44.625V44.5312C219.069 39.4062 219.96 34.9688 221.741 31.2188C223.554 27.4688 226.069 24.5781 229.288 22.5469C232.507 20.5156 236.257 19.5 240.538 19.5C244.788 19.5 248.523 20.5156 251.741 22.5469C254.991 24.5781 257.523 27.4688 259.335 31.2188C261.179 34.9375 262.101 39.375 262.101 44.5312V44.625C262.101 49.7812 261.179 54.25 259.335 58.0312C257.523 61.7812 254.991 64.6719 251.741 66.7031C248.523 68.7344 244.788 69.75 240.538 69.75ZM240.538 67.5938C244.351 67.5938 247.694 66.6562 250.569 64.7812C253.476 62.9062 255.726 60.25 257.319 56.8125C258.913 53.375 259.71 49.3125 259.71 44.625V44.5312C259.71 39.8125 258.898 35.75 257.273 32.3438C255.679 28.9375 253.429 26.3125 250.523 24.4688C247.648 22.5938 244.319 21.6562 240.538 21.6562C236.694 21.6562 233.335 22.5938 230.46 24.4688C227.616 26.3125 225.398 28.9531 223.804 32.3906C222.21 35.7969 221.413 39.8438 221.413 44.5312V44.625C221.413 49.3125 222.21 53.375 223.804 56.8125C225.398 60.25 227.616 62.9062 230.46 64.7812C233.335 66.625 236.694 67.5625 240.538 67.5938ZM284.604 69.75C280.604 69.75 277.057 68.7031 273.964 66.6094C270.901 64.4844 268.495 61.5312 266.745 57.75C265.026 53.9375 264.167 49.5469 264.167 44.5781V44.5312C264.167 39.5625 265.042 35.2031 266.792 31.4531C268.542 27.7031 270.948 24.7812 274.011 22.6875C277.104 20.5625 280.651 19.5 284.651 19.5C287.745 19.5 290.573 20.125 293.136 21.375C295.729 22.5938 297.917 24.3281 299.698 26.5781C301.511 28.8281 302.776 31.4688 303.495 34.5H303.636V1.35938H305.979V69H303.636V55.125H303.401C302.589 58.0312 301.276 60.5938 299.464 62.8125C297.682 65 295.526 66.7031 292.995 67.9219C290.464 69.1406 287.667 69.75 284.604 69.75ZM284.979 67.5938C288.604 67.5938 291.823 66.625 294.636 64.6875C297.448 62.7188 299.651 60.0156 301.245 56.5781C302.839 53.1094 303.636 49.1406 303.636 44.6719V44.625C303.636 40.125 302.823 36.1562 301.198 32.7188C299.604 29.25 297.401 26.5469 294.589 24.6094C291.776 22.6406 288.557 21.6562 284.932 21.6562C281.307 21.6562 278.104 22.625 275.323 24.5625C272.542 26.4688 270.37 29.1406 268.807 32.5781C267.276 35.9844 266.511 39.9688 266.511 44.5312V44.5781C266.511 49.1406 267.276 53.1562 268.807 56.625C270.37 60.0625 272.542 62.75 275.323 64.6875C278.104 66.625 281.323 67.5938 284.979 67.5938ZM331.393 69V22.4062H324.596V20.25H331.393V11.5781C331.393 8.98438 331.831 6.89062 332.706 5.29688C333.581 3.67187 334.815 2.48438 336.409 1.73438C338.003 0.984375 339.878 0.609375 342.034 0.609375C342.753 0.609375 343.44 0.65625 344.096 0.75C344.753 0.84375 345.268 0.9375 345.643 1.03125V3.09375C345.143 2.96875 344.596 2.89063 344.003 2.85938C343.409 2.79688 342.784 2.76562 342.128 2.76562C339.565 2.76562 337.518 3.45313 335.987 4.82812C334.487 6.20312 333.737 8.53125 333.737 11.8125V20.25H345.221V22.4062H333.737V69H331.393ZM363.834 69.75C359.553 69.7188 355.788 68.6875 352.538 66.6562C349.319 64.625 346.819 61.7344 345.038 57.9844C343.256 54.2031 342.366 49.75 342.366 44.625V44.5312C342.366 39.4062 343.256 34.9688 345.038 31.2188C346.85 27.4688 349.366 24.5781 352.584 22.5469C355.803 20.5156 359.553 19.5 363.834 19.5C368.084 19.5 371.819 20.5156 375.038 22.5469C378.288 24.5781 380.819 27.4688 382.631 31.2188C384.475 34.9375 385.397 39.375 385.397 44.5312V44.625C385.397 49.7812 384.475 54.25 382.631 58.0312C380.819 61.7812 378.288 64.6719 375.038 66.7031C371.819 68.7344 368.084 69.75 363.834 69.75ZM363.834 67.5938C367.647 67.5938 370.991 66.6562 373.866 64.7812C376.772 62.9062 379.022 60.25 380.616 56.8125C382.209 53.375 383.006 49.3125 383.006 44.625V44.5312C383.006 39.8125 382.194 35.75 380.569 32.3438C378.975 28.9375 376.725 26.3125 373.819 24.4688C370.944 22.5938 367.616 21.6562 363.834 21.6562C359.991 21.6562 356.631 22.5938 353.756 24.4688C350.913 26.3125 348.694 28.9531 347.1 32.3906C345.506 35.7969 344.709 39.8438 344.709 44.5312V44.625C344.709 49.3125 345.506 53.375 347.1 56.8125C348.694 60.25 350.913 62.9062 353.756 64.7812C356.631 66.625 359.991 67.5625 363.834 67.5938ZM408.932 69.75C404.651 69.7188 400.885 68.6875 397.635 66.6562C394.416 64.625 391.916 61.7344 390.135 57.9844C388.354 54.2031 387.463 49.75 387.463 44.625V44.5312C387.463 39.4062 388.354 34.9688 390.135 31.2188C391.948 27.4688 394.463 24.5781 397.682 22.5469C400.901 20.5156 404.651 19.5 408.932 19.5C413.182 19.5 416.916 20.5156 420.135 22.5469C423.385 24.5781 425.916 27.4688 427.729 31.2188C429.573 34.9375 430.494 39.375 430.494 44.5312V44.625C430.494 49.7812 429.573 54.25 427.729 58.0312C425.916 61.7812 423.385 64.6719 420.135 66.7031C416.916 68.7344 413.182 69.75 408.932 69.75ZM408.932 67.5938C412.744 67.5938 416.088 66.6562 418.963 64.7812C421.869 62.9062 424.119 60.25 425.713 56.8125C427.307 53.375 428.104 49.3125 428.104 44.625V44.5312C428.104 39.8125 427.291 35.75 425.666 32.3438C424.073 28.9375 421.823 26.3125 418.916 24.4688C416.041 22.5938 412.713 21.6562 408.932 21.6562C405.088 21.6562 401.729 22.5938 398.854 24.4688C396.01 26.3125 393.791 28.9531 392.198 32.3906C390.604 35.7969 389.807 39.8438 389.807 44.5312V44.625C389.807 49.3125 390.604 53.375 392.198 56.8125C393.791 60.25 396.01 62.9062 398.854 64.7812C401.729 66.625 405.088 67.5625 408.932 67.5938ZM452.998 69.75C448.998 69.75 445.451 68.7031 442.358 66.6094C439.295 64.4844 436.889 61.5312 435.139 57.75C433.42 53.9375 432.561 49.5469 432.561 44.5781V44.5312C432.561 39.5625 433.436 35.2031 435.186 31.4531C436.936 27.7031 439.342 24.7812 442.404 22.6875C445.498 20.5625 449.045 19.5 453.045 19.5C456.139 19.5 458.967 20.125 461.529 21.375C464.123 22.5938 466.311 24.3281 468.092 26.5781C469.904 28.8281 471.17 31.4688 471.889 34.5H472.029V1.35938H474.373V69H472.029V55.125H471.795C470.983 58.0312 469.67 60.5938 467.858 62.8125C466.076 65 463.92 66.7031 461.389 67.9219C458.858 69.1406 456.061 69.75 452.998 69.75ZM453.373 67.5938C456.998 67.5938 460.217 66.625 463.029 64.6875C465.842 62.7188 468.045 60.0156 469.639 56.5781C471.233 53.1094 472.029 49.1406 472.029 44.6719V44.625C472.029 40.125 471.217 36.1562 469.592 32.7188C467.998 29.25 465.795 26.5469 462.983 24.6094C460.17 22.6406 456.951 21.6562 453.326 21.6562C449.701 21.6562 446.498 22.625 443.717 24.5625C440.936 26.4688 438.764 29.1406 437.201 32.5781C435.67 35.9844 434.904 39.9688 434.904 44.5312V44.5781C434.904 49.1406 435.67 53.1562 437.201 56.625C438.764 60.0625 440.936 62.75 443.717 64.6875C446.498 66.625 449.717 67.5938 453.373 67.5938ZM519.287 69.75C516.287 69.75 513.49 69.1406 510.896 67.9219C508.334 66.6719 506.131 64.9219 504.287 62.6719C502.474 60.3906 501.177 57.7188 500.396 54.6562H500.302V69H497.959V1.35938H500.302V34.5H500.396C501.146 31.4688 502.412 28.8281 504.193 26.5781C505.974 24.3281 508.162 22.5938 510.756 21.375C513.349 20.125 516.177 19.5 519.24 19.5C523.24 19.5 526.771 20.5625 529.834 22.6875C532.927 24.7812 535.349 27.7031 537.099 31.4531C538.849 35.2031 539.724 39.5625 539.724 44.5312V44.5781C539.724 49.5469 538.849 53.9375 537.099 57.75C535.381 61.5312 532.974 64.4844 529.881 66.6094C526.818 68.7031 523.287 69.75 519.287 69.75ZM518.959 67.5938C522.615 67.5938 525.818 66.625 528.568 64.6875C531.349 62.75 533.506 60.0625 535.037 56.625C536.599 53.1562 537.381 49.1406 537.381 44.5781V44.5312C537.381 39.9688 536.599 35.9844 535.037 32.5781C533.506 29.1406 531.365 26.4688 528.615 24.5625C525.865 22.625 522.662 21.6562 519.006 21.6562C515.381 21.6562 512.162 22.6406 509.349 24.6094C506.537 26.5469 504.318 29.25 502.693 32.7188C501.099 36.1562 500.302 40.125 500.302 44.625V44.6719C500.302 49.1406 501.099 53.1094 502.693 56.5781C504.287 60.0156 506.474 62.7188 509.256 64.6875C512.068 66.625 515.302 67.5938 518.959 67.5938ZM544.697 69V1.35938H547.041V69H544.697ZM573.482 69.75C569.201 69.7188 565.435 68.6875 562.185 66.6562C558.966 64.625 556.466 61.7344 554.685 57.9844C552.904 54.2031 552.013 49.75 552.013 44.625V44.5312C552.013 39.4062 552.904 34.9688 554.685 31.2188C556.497 27.4688 559.013 24.5781 562.232 22.5469C565.451 20.5156 569.201 19.5 573.482 19.5C577.732 19.5 581.466 20.5156 584.685 22.5469C587.935 24.5781 590.466 27.4688 592.279 31.2188C594.122 34.9375 595.044 39.375 595.044 44.5312V44.625C595.044 49.7812 594.122 54.25 592.279 58.0312C590.466 61.7812 587.935 64.6719 584.685 66.7031C581.466 68.7344 577.732 69.75 573.482 69.75ZM573.482 67.5938C577.294 67.5938 580.638 66.6562 583.513 64.7812C586.419 62.9062 588.669 60.25 590.263 56.8125C591.857 53.375 592.654 49.3125 592.654 44.625V44.5312C592.654 39.8125 591.841 35.75 590.216 32.3438C588.622 28.9375 586.372 26.3125 583.466 24.4688C580.591 22.5938 577.263 21.6562 573.482 21.6562C569.638 21.6562 566.279 22.5938 563.404 24.4688C560.56 26.3125 558.341 28.9531 556.747 32.3906C555.154 35.7969 554.357 39.8438 554.357 44.5312V44.625C554.357 49.3125 555.154 53.375 556.747 56.8125C558.341 60.25 560.56 62.9062 563.404 64.7812C566.279 66.625 569.638 67.5625 573.482 67.5938ZM619.095 86.1562C615.564 86.1562 612.501 85.6406 609.908 84.6094C607.345 83.5781 605.251 82.1875 603.626 80.4375C602.001 78.7188 600.861 76.8281 600.204 74.7656L600.111 74.4844H602.548L602.689 74.8594C603.564 77.2656 605.392 79.3906 608.173 81.2344C610.986 83.0781 614.642 84 619.142 84C624.579 84 628.845 82.5469 631.939 79.6406C635.033 76.7656 636.579 72.8594 636.579 67.9219V54.75H636.439C635.845 57.5312 634.673 60.0625 632.923 62.3438C631.173 64.5938 629.001 66.3906 626.408 67.7344C623.814 69.0781 620.908 69.75 617.689 69.75C613.626 69.75 610.048 68.7031 606.954 66.6094C603.861 64.5156 601.439 61.5938 599.689 57.8438C597.97 54.0625 597.111 49.6562 597.111 44.625V44.5781C597.111 39.5781 597.986 35.2031 599.736 31.4531C601.486 27.6719 603.908 24.7344 607.001 22.6406C610.095 20.5469 613.658 19.5 617.689 19.5C620.876 19.5 623.751 20.1719 626.314 21.5156C628.908 22.8594 631.079 24.6875 632.829 27C634.579 29.2812 635.783 31.8281 636.439 34.6406H636.579V20.25H638.923V67.9688C638.923 71.6875 638.126 74.9062 636.533 77.625C634.939 80.3438 632.658 82.4375 629.689 83.9062C626.72 85.4062 623.189 86.1562 619.095 86.1562ZM617.829 67.5469C621.517 67.5469 624.767 66.5781 627.579 64.6406C630.392 62.6719 632.595 59.9688 634.189 56.5312C635.783 53.0938 636.579 49.125 636.579 44.625V44.5781C636.579 40.0469 635.783 36.0625 634.189 32.625C632.595 29.1875 630.392 26.5 627.579 24.5625C624.767 22.625 621.517 21.6562 617.829 21.6562C614.236 21.6562 611.048 22.625 608.267 24.5625C605.517 26.5 603.361 29.1875 601.798 32.625C600.236 36.0312 599.454 40.0156 599.454 44.5781V44.625C599.454 49.1562 600.22 53.1406 601.751 56.5781C603.314 60.0156 605.47 62.7031 608.22 64.6406C611.001 66.5781 614.204 67.5469 617.829 67.5469Z" fill="black" fill-opacity="0.25"/>
</svg>
